{
	"asset":{
		"generator":"Khronos glTF Blender I/O v4.2.60",
		"version":"2.0"
	},
	"scene":0,
	"scenes":[
		{
			"name":"Scene",
			"nodes":[
				0
			]
		}
	],
	"nodes":[
		{
			"mesh":0,
			"name":"Curve",
			"rotation":[
				0.7071068286895752,
				0,
				0,
				0.7071068286895752
			],
			"scale":[
				37.45712661743164,
				37.45712661743164,
				37.45712661743164
			]
		}
	],
	"meshes":[
		{
			"name":"Curve",
			"primitives":[
				{
					"attributes":{
						"POSITION":0,
						"NORMAL":1,
						"TEXCOORD_0":2
					},
					"indices":3
				}
			]
		}
	],
	"accessors":[
		{
			"bufferView":0,
			"componentType":5126,
			"count":1684,
			"max":[
				0.2375287264585495,
				0.010564885102212429,
				2.7755575615628914e-17
			],
			"min":[
				0,
				0,
				-0.23149658739566803
			],
			"type":"VEC3"
		},
		{
			"bufferView":1,
			"componentType":5126,
			"count":1684,
			"type":"VEC3"
		},
		{
			"bufferView":2,
			"componentType":5126,
			"count":1684,
			"type":"VEC2"
		},
		{
			"bufferView":3,
			"componentType":5123,
			"count":4860,
			"type":"SCALAR"
		}
	],
	"bufferViews":[
		{
			"buffer":0,
			"byteLength":20208,
			"byteOffset":0,
			"target":34962
		},
		{
			"buffer":0,
			"byteLength":20208,
			"byteOffset":20208,
			"target":34962
		},
		{
			"buffer":0,
			"byteLength":13472,
			"byteOffset":40416,
			"target":34962
		},
		{
			"buffer":0,
			"byteLength":9720,
			"byteOffset":53888,
			"target":34963
		}
	],
	"buffers":[
		{
			"byteLength":63608,
			"uri":"logo.bin"
		}
	]
}
